<svg width="110" height="28" viewBox="0 0 110 28" fill="none" xmlns="http://www.w3.org/2000/svg">
<path d="M0.00157102 17.1204C-0.0174567 16.442 0.136636 15.7702 0.448802 15.1705C0.73929 14.6388 1.13442 14.1738 1.60947 13.8046C2.10185 13.4246 2.6488 13.1243 3.23107 12.914C3.82542 12.6951 4.43578 12.5242 5.0565 12.403C5.63369 12.2872 6.21746 12.2086 6.80435 12.1675C7.36263 12.1304 7.83876 12.1102 8.22971 12.1102H9.15307V11.6131C9.16469 11.2016 9.09324 10.792 8.94315 10.4097C8.81798 10.1024 8.62051 9.8312 8.36814 9.61989C8.11685 9.41576 7.82604 9.26798 7.51475 9.18625C7.16746 9.09217 6.80927 9.04633 6.44991 9.04996C5.91955 9.04591 5.39137 9.11945 4.88156 9.26833C4.43196 9.39812 3.99261 9.56223 3.56725 9.75928C3.13351 9.96005 2.71724 10.1979 2.32291 10.4701L0.979698 7.91165C1.46794 7.55107 1.99332 7.24571 2.54653 7.001C3.13793 6.74193 3.74825 6.53015 4.37196 6.36757C5.15508 6.16367 5.96109 6.06526 6.76936 6.07486C8.73677 6.07486 10.2306 6.57561 11.2508 7.57712C12.271 8.57863 12.7806 10.0329 12.7796 11.9399V17.8746C12.7796 18.3021 12.9895 18.5158 13.4094 18.5158H14.7237V21.2911H11.2843C10.9927 21.2985 10.702 21.2551 10.4248 21.1626C10.2116 21.0928 10.0159 20.9765 9.8513 20.8218C9.70832 20.6824 9.59809 20.512 9.52881 20.3231C9.4577 20.1274 9.42213 19.9201 9.42384 19.7114V19.541C9.42011 19.3547 9.43438 19.1685 9.46644 18.985C9.47341 18.9176 9.4877 18.8511 9.50903 18.7868H9.45275C9.19326 19.3238 8.84314 19.8103 8.41833 20.224C8.22008 20.4135 8.00969 20.5894 7.78856 20.7506C7.54163 20.9299 7.27704 21.0825 6.99906 21.2059C6.31948 21.5037 5.5864 21.654 4.84657 21.6473C4.23273 21.649 3.62225 21.555 3.03635 21.3685C2.47114 21.1939 1.94574 20.9065 1.49082 20.5229C1.03657 20.1346 0.669765 19.6513 0.415336 19.1058C0.129846 18.485 -0.0117178 17.8057 0.00157102 17.1204ZM3.66461 16.837C3.66444 17.1016 3.71188 17.3641 3.80455 17.6113C3.8949 17.8547 4.03548 18.0754 4.2168 18.2587C4.40696 18.4566 4.63539 18.6122 4.88764 18.7156C5.17585 18.8254 5.48207 18.878 5.78971 18.8704C6.27056 18.8754 6.74373 18.7475 7.15879 18.5003C7.5685 18.2551 7.92964 17.9342 8.22362 17.554C8.52457 17.1636 8.76093 16.7257 8.92337 16.2577C9.08559 15.8045 9.16998 15.3262 9.17285 14.8437V14.359H8.57198C8.32858 14.359 8.04108 14.3683 7.7049 14.3884C7.36871 14.4086 7.02036 14.4442 6.65679 14.5015C6.29257 14.5592 5.93271 14.6425 5.57979 14.7508C5.24203 14.8514 4.91991 15 4.62296 15.1922C4.34773 15.3679 4.11191 15.6006 3.93081 15.8752C3.74861 16.161 3.65579 16.4963 3.66461 16.837Z" fill="#1E1E1E"/>
<path d="M15.7649 18.5145H17.8946V9.83231C17.9013 9.74528 17.8899 9.6578 17.861 9.5756C17.8322 9.49339 17.7866 9.41832 17.7273 9.3553C17.6024 9.24147 17.4384 9.18247 17.2709 9.19114H15.625V6.42976H19.4569C20.108 6.42976 20.5876 6.5743 20.8959 6.8634C21.2042 7.1525 21.3564 7.55826 21.3523 8.0807V8.74975C21.3521 8.83052 21.347 8.91121 21.3371 8.99135C21.328 9.06879 21.3188 9.13383 21.3097 9.19114L21.2823 9.39092H21.3523C21.4104 9.25106 21.478 9.11548 21.5546 8.98516C21.688 8.7519 21.8407 8.53067 22.011 8.32385C22.2316 8.05073 22.4738 7.79641 22.7351 7.56342C23.0451 7.28355 23.3849 7.03991 23.7482 6.83707C24.6634 6.32214 25.6948 6.05948 26.7404 6.0751C27.4478 6.06309 28.1521 6.17413 28.8229 6.40343C29.4096 6.60885 29.9362 6.96083 30.3547 7.42714C30.7937 7.93849 31.1181 8.54093 31.3055 9.19268C31.5412 10.0149 31.6545 10.8684 31.6416 11.7249V18.5145H33.7515V21.2898H28.0258V12.493C28.0298 12.0776 27.9952 11.6628 27.9223 11.254C27.8637 10.9136 27.7374 10.589 27.5512 10.3C27.3718 10.0325 27.1255 9.81865 26.8377 9.68053C26.4823 9.5225 26.0966 9.44786 25.709 9.46216C25.0917 9.45087 24.4821 9.60296 23.9398 9.90355C23.4264 10.1944 22.9787 10.5917 22.6255 11.0697C22.2602 11.567 21.9837 12.1258 21.8087 12.7207C21.6224 13.3341 21.528 13.9727 21.5288 14.6148V18.5145H23.6113V21.2898H15.7649V18.5145Z" fill="#1E1E1E"/>
<path d="M34.3461 23.681C34.5338 23.8247 34.7382 23.9444 34.9546 24.0372C35.1784 24.135 35.4099 24.2133 35.6468 24.271C35.9455 24.3451 36.2521 24.381 36.5595 24.3779C37.1099 24.3884 37.6506 24.2297 38.1111 23.9226C38.5652 23.6104 38.92 23.1701 39.1318 22.6557L39.5365 21.7265L34.5165 9.18177H32.7656V6.42969H39.9654V9.19107H38.2465L40.9025 16.7008C41.0214 17.0432 41.1105 17.3957 41.1687 17.754C41.1955 17.9186 41.2137 18.0845 41.2235 18.2511H41.3071C41.3269 18.0962 41.3543 17.9243 41.3923 17.754C41.4602 17.3938 41.5621 17.0411 41.6966 16.7008L44.3419 9.19107H42.6503V6.42969H49.5566V9.19107H47.8924L42.5104 23.2055C42.2625 23.8875 41.9159 24.528 41.4821 25.1058C41.1005 25.6099 40.6431 26.0495 40.1267 26.4083C39.634 26.7459 39.091 27.0006 38.5188 27.1625C37.9334 27.3251 37.3291 27.4064 36.7223 27.4041C36.2358 27.4093 35.7504 27.3573 35.2756 27.2492C34.8919 27.1604 34.5155 27.0413 34.1499 26.893C33.8071 26.7575 33.4793 26.5857 33.1718 26.3804L34.3461 23.681Z" fill="#1E1E1E"/>
<path d="M48.8051 13.0102L49.7178 16.4499C49.7639 16.635 49.799 16.8227 49.8227 17.0121C49.8456 17.198 49.8669 17.3714 49.8851 17.5325C49.9034 17.6936 49.9231 17.8887 49.9414 18.0591H50.0251C50.0342 17.8887 50.054 17.7122 50.0813 17.5325C50.1087 17.3529 50.1239 17.198 50.1513 17.0121C50.1787 16.8263 50.2167 16.6404 50.2639 16.4499L53.002 6.45756H56.2178L58.9301 16.4499C58.9748 16.6353 59.0098 16.823 59.0351 17.0121C59.0579 17.198 59.0792 17.3714 59.0975 17.5325C59.1157 17.6936 59.134 17.8887 59.1537 18.0591H59.2511C59.2513 17.8827 59.2655 17.7066 59.2937 17.5325C59.3119 17.3776 59.3348 17.198 59.3637 17.0121C59.3926 16.8263 59.4276 16.6404 59.4747 16.4499L61.4188 9.19107H59.6451V6.42969H66.6639V9.19107H64.916L61.5329 21.2897H57.4257L54.8929 12.5781C54.8462 12.3892 54.8067 12.1971 54.7742 12.002C54.7408 11.8084 54.7149 11.6303 54.6966 11.4692C54.6784 11.3082 54.6495 11.113 54.6404 10.9427H54.5567C54.5471 11.1191 54.5284 11.2949 54.5004 11.4692C54.4822 11.6241 54.4548 11.8084 54.4167 12.002C54.3787 12.1956 54.3376 12.3892 54.2905 12.5781L51.8033 21.2897H47.6779L46.8047 18.1504" fill="#1E1E1E"/>
<path d="M66.1411 13.8614C66.1293 12.7824 66.3402 11.7129 66.7602 10.7222C67.1552 9.79478 67.7289 8.95745 68.4472 8.25968C69.1717 7.56298 70.0227 7.01692 70.9526 6.6521C71.9328 6.26337 72.9766 6.06735 74.0285 6.07443C75.0884 6.06687 76.1401 6.26285 77.1287 6.6521C78.0623 7.01761 78.9177 7.5635 79.6478 8.25968C80.369 8.95632 80.9448 9.79383 81.3409 10.7222C81.7608 11.7129 81.9718 12.7824 81.96 13.8614C81.9716 14.9399 81.7607 16.0089 81.3409 16.9991C80.9448 17.9275 80.369 18.765 79.6478 19.4616C78.9175 20.158 78.0622 20.7043 77.1287 21.0708C75.1423 21.839 72.9481 21.839 70.9618 21.0708C70.0334 20.703 69.1833 20.1567 68.4579 19.4616C67.7367 18.765 67.1609 17.9275 66.7648 16.9991C66.3434 16.0092 66.1309 14.9403 66.1411 13.8614ZM69.7752 13.8614C69.7671 14.5085 69.8818 15.1511 70.1129 15.754C70.3209 16.2984 70.6344 16.7945 71.0348 17.2129C71.4247 17.6164 71.8902 17.9361 72.4038 18.1529C72.929 18.376 73.4929 18.4893 74.0619 18.4859C74.6195 18.4887 75.1719 18.3775 75.6864 18.1588C76.2009 17.9401 76.6671 17.6184 77.0572 17.2129C77.4566 16.7937 77.77 16.2978 77.979 15.754C78.4293 14.5382 78.4293 13.1971 77.979 11.9813C77.7689 11.4362 77.4557 10.9384 77.0572 10.5162C76.6702 10.1112 76.2093 9.78714 75.7003 9.56216C75.1834 9.33351 74.6255 9.21694 74.0619 9.21989C73.492 9.21663 72.9275 9.33315 72.4038 9.56216C71.8899 9.78462 71.4245 10.1089 71.0348 10.5162C70.6352 10.9376 70.3219 11.4356 70.1129 11.9813C69.8824 12.58 69.7677 13.2184 69.7752 13.8614Z" fill="#1E1E1E"/>
<path d="M82.3899 18.5133H84.5196V9.83114C84.5256 9.74418 84.5137 9.65691 84.4849 9.57482C84.4562 9.49273 84.411 9.41759 84.3523 9.35413C84.2272 9.2406 84.0633 9.18164 83.8959 9.18997H82.25V6.42859H86.053C86.7051 6.42859 87.1944 6.57107 87.5209 6.85604C87.8475 7.141 88.0108 7.59633 88.0108 8.22201V9.11098C88.0108 9.25347 88.0108 9.38201 88.0032 9.49507C87.9955 9.60813 87.991 9.70415 87.9819 9.78003C87.9727 9.85592 87.9636 9.95969 87.9545 10.0356H88.0108C88.1766 9.50884 88.4092 9.00641 88.7029 8.54105C88.9866 8.08766 89.3352 7.67997 89.7373 7.3315C90.134 6.98977 90.5825 6.71571 91.0653 6.51996C91.5661 6.31669 92.1006 6.21312 92.6398 6.21487C92.7234 6.21487 92.804 6.21487 92.8847 6.22261C92.9653 6.23035 93.0368 6.235 93.1007 6.24429L93.2969 6.27217V9.91632L93.0429 9.88535C92.9683 9.87606 92.8771 9.86986 92.7706 9.86521C92.6641 9.86057 92.5439 9.85747 92.4146 9.85747C91.7518 9.84101 91.096 9.99834 90.5101 10.3143C89.9835 10.6104 89.5295 11.0239 89.1821 11.5239C88.8218 12.0503 88.5589 12.6391 88.4063 13.2616C88.2388 13.9191 88.1544 14.5957 88.1553 15.2749V18.5056H90.2378V21.2809H82.3899V18.5133Z" fill="#1E1E1E"/>
<path d="M93.571 13.8601C93.558 12.7703 93.7209 11.6857 94.0533 10.6496C94.3428 9.74597 94.8085 8.91108 95.4223 8.1949C96.0052 7.52592 96.7234 6.99335 97.5277 6.63378C98.3847 6.25345 99.3112 6.06237 100.246 6.07314C100.92 6.05508 101.591 6.16647 102.224 6.40147C102.689 6.57747 103.127 6.82164 103.523 7.12628C103.887 7.41968 104.204 7.7705 104.46 8.16547H104.505C104.496 8.08081 104.487 7.98634 104.478 7.88206C104.467 7.78604 104.461 7.67763 104.457 7.55373C104.452 7.42983 104.457 7.2889 104.457 7.12628V3.35513H102.183V0.59375H108.054V17.8729C108.054 18.3003 108.264 18.5141 108.684 18.5141H109.998V21.2894H106.573C106.284 21.2971 105.995 21.2536 105.721 21.1608C105.507 21.0877 105.309 20.9719 105.14 20.8201C104.99 20.6839 104.875 20.5128 104.804 20.3214C104.734 20.1254 104.699 19.9182 104.7 19.7097V19.5393C104.696 19.3767 104.71 19.2141 104.741 19.0546C104.759 18.988 104.778 18.926 104.797 18.8703H104.727C104.481 19.3987 104.134 19.8724 103.707 20.2641C103.505 20.4485 103.29 20.6178 103.063 20.7706C102.802 20.9465 102.524 21.0945 102.233 21.2119C101.897 21.3448 101.55 21.4484 101.197 21.5217C99.8866 21.7791 98.5304 21.6224 97.3101 21.0726C96.5299 20.6991 95.842 20.1518 95.2976 19.4712C94.7204 18.7412 94.2862 17.9053 94.0183 17.0087C93.7106 15.9889 93.5598 14.9269 93.571 13.8601ZM97.2341 13.8601C97.2268 14.5071 97.3161 15.1515 97.4988 15.7713C97.6555 16.3044 97.9072 16.8036 98.2411 17.2441C98.5452 17.6422 98.935 17.9638 99.3805 18.1842C99.8365 18.4047 100.336 18.5165 100.841 18.511C101.314 18.5142 101.783 18.4253 102.224 18.2492C102.673 18.0676 103.077 17.7855 103.406 17.4238C103.769 17.0126 104.046 16.5312 104.222 16.0082C104.44 15.3458 104.543 14.6499 104.527 13.9515C104.528 13.3581 104.453 12.7671 104.303 12.1937C104.167 11.6583 103.943 11.1502 103.64 10.6914C103.354 10.2579 102.974 9.89789 102.528 9.63986C102.047 9.37086 101.505 9.2357 100.956 9.24803C100.458 9.24663 99.9643 9.35217 99.5083 9.55778C99.0543 9.76373 98.651 10.0701 98.3278 10.4545C97.9732 10.8799 97.7016 11.3703 97.5277 11.8995C97.3224 12.5316 97.2231 13.1944 97.2341 13.8601Z" fill="#1E1E1E"/>
</svg>
