<svg width="94" height="22" viewBox="0 0 94 22" fill="none" xmlns="http://www.w3.org/2000/svg">
<path d="M6.18595 14.8931C7.49994 14.8931 8.48543 14.3058 9.01102 13.545L10.9596 14.6766C9.95172 16.1552 8.30924 17.0465 6.16355 17.0465C2.55009 17.0465 0.207306 14.5891 0.207306 11.3263C0.207306 8.06361 2.55009 5.60619 5.98885 5.60619C9.42762 5.60619 11.4852 8.21637 11.4852 11.3486C11.4852 11.6749 11.4419 12.0234 11.3971 12.3274H2.68149C3.05328 14.024 4.43297 14.8931 6.18446 14.8931H6.18595ZM9.09763 10.4128C8.76913 8.54264 7.38945 7.73734 5.96646 7.73734C4.19257 7.73734 2.98908 8.78141 2.66058 10.4128H9.09763Z" fill="#004349"/>
<path d="M19.9185 16.7647L17.2039 13.0452L14.4669 16.7647H11.7075L15.8242 11.175L11.927 5.88941H14.664L17.1815 9.32565L19.7005 5.88941H22.4598L18.5627 11.1958L22.6569 16.7632H19.92L19.9185 16.7647Z" fill="#004349"/>
<path d="M36.7048 0.887085H39.0699V16.7647H36.7048V0.887085Z" fill="#004349"/>
<path d="M40.596 11.3263C40.596 8.0858 43.1792 5.60613 46.3775 5.60613C49.5759 5.60613 52.1591 8.0858 52.1591 11.3263C52.1591 14.5667 49.5968 17.0464 46.3775 17.0464C43.1583 17.0464 40.596 14.5445 40.596 11.3263ZM49.7924 11.3263C49.7924 9.3464 48.3037 7.89004 46.376 7.89004C44.4484 7.89004 42.9597 9.34788 42.9597 11.3263C42.9597 13.3047 44.4484 14.7625 46.376 14.7625C48.3037 14.7625 49.7924 13.3047 49.7924 11.3263Z" fill="#004349"/>
<path d="M53.488 11.6096V16.7647H55.8532V11.6096C55.8532 9.62968 57.3419 8.17332 59.2696 8.17332V5.88941C56.0727 5.88941 53.488 8.36908 53.488 11.6096Z" fill="#004349"/>
<path d="M60.7463 5.88941H63.1115V16.7647H60.7463V5.88941Z" fill="#004349"/>
<path d="M29.3316 5.60613C26.1347 5.60613 23.5501 8.0858 23.5501 11.3263V21.113H25.9152V15.9579C26.8723 16.6445 28.0519 17.0449 29.3316 17.0449C32.5509 17.0449 35.1131 14.543 35.1131 11.3248C35.1131 8.10656 32.5509 5.60465 29.3316 5.60465V5.60613ZM29.3316 14.7625C27.4039 14.7625 25.9152 13.3047 25.9152 11.3263C25.9152 9.34788 27.4039 7.89004 29.3316 7.89004C31.2593 7.89004 32.748 9.34788 32.748 11.3263C32.748 13.3047 31.2593 14.7625 29.3316 14.7625Z" fill="#004349"/>
<path d="M72.4677 5.88941V12.099C72.4677 13.5346 71.2955 14.6988 69.8501 14.6988C68.4047 14.6988 67.2326 13.5346 67.2326 12.099V5.88941H64.8689V12.099C64.8689 14.8322 67.0997 17.0464 69.8501 17.0464C72.602 17.0464 74.8313 14.8308 74.8313 12.099V5.88941H72.4662H72.4677Z" fill="#004349"/>
<path d="M89.0238 5.61806C87.5083 5.61806 86.1525 6.29137 85.2387 7.35027C84.3249 6.27654 82.9601 5.59433 81.4341 5.59433C78.6822 5.59433 76.4529 7.81002 76.4529 10.5418V16.7514H78.818V10.5418C78.818 9.10621 79.9902 7.94201 81.4356 7.94201C82.881 7.94201 83.9844 9.04392 84.0471 10.4246C84.0471 10.4706 84.0441 10.5181 84.0441 10.5655V16.7751H86.4093V16.7528H86.4183V10.5433C86.4183 10.5092 86.4168 10.4736 86.4153 10.4395C86.4825 9.0632 87.6233 7.96574 89.0253 7.96574C90.4274 7.96574 91.6429 9.12994 91.6429 10.5655V16.7751H94.0066V10.5655C94.0066 7.83226 91.7758 5.61806 89.0253 5.61806H89.0238Z" fill="#004349"/>
</svg>
