<svg xmlns="http://www.w3.org/2000/svg" width="150" height="48" viewBox="0 0 150 48">
    <g fill="#27AAE1">
        <path d="M49.068 23.55c.4-3.726-.785-8.383-4.489-9.966-4.647-1.993-9.912 1.206-12.9 4.657 0-1.35.692-4.317-.93-4.964-1.621-.648-2.286.917-2.286 2.226-.125 5.178-.046 10.375.056 15.554.025 1.263.056 2.528.093 3.795 0 .81-.172 2.049.335 2.761.336.467.885.731 1.458.704.573-.027 1.094-.343 1.386-.839.404-.796.092-2.128.07-2.98-.035-1.242-.063-2.493-.084-3.753-.05-2.754-.078-5.508-.084-8.262.8-.554 1.348-1.942 2.003-2.696.741-.878 1.613-1.636 2.584-2.25 1.758-1.142 3.948-1.395 5.92-.684 3.592 1.397 3.718 5.78 3.801 9.058.075 2.393.181 4.792.154 7.19 0 1.444-.697 4.657 1.556 4.778 2.533.149 1.673-3.758 1.66-5.267-.033-3.018 0-6.054-.275-9.058-.023-.032.279 3.493-.028-.004zM65.798 34.684c-1.64.14-3.695.83-5.038-.526-1.045-1.052-.93-2.85-.98-4.214-.186-4.555-.228-9.119-.233-13.678 1.19 0 6.971.392 6.004-2.22-.65-1.79-4.702-1.114-5.999-.988 0-1.155.99-9.193-1.659-7.917-1.942.172-1.087 6.79-1.097 8.192-1.236-.024-3.76-.406-4.205 1.243-.628 2.328 3.253 1.201 4.182 1.602l-.065 10.46c0 2.626-.502 5.876.497 8.382 1.102 2.766 4.02 3.353 6.655 2.71.93-.224 2.514-.466 2.923-1.462.32-.76-.098-1.649-1-1.574l.015-.01zM93.885 25.026c-.093-2.626-.567-5.565-2.39-7.567-1.705-1.863-4.181-2.897-6.537-3.61-2.357-.712-5.052-1.122-7.436-.144-2.347 1.047-4.352 2.735-5.785 4.871-1.394 2.222-1.692 5.09-1.394 7.647.153 1.243.464 2.398.562 3.641.086 1.305.573 2.551 1.394 3.568.72.894 1.543 1.783 2.323 2.635.781.853 1.78 1.058 2.83 1.505 2.221.916 4.683 1.067 6.999.428 5.632-1.509 9.652-7.158 9.443-12.974h-.01zm-7.598 9.314c-4.122 2.03-8.927.368-11.562-3.13-2.236-4.936-2.068-12.485 4.029-14.576 5.186-1.779 11.747 2.669 12.635 7.917 0 3.907-1.496 8.005-5.112 9.78l.01.009zM23.64 25.026c-.121-3.372-.93-6.673-3.718-8.774-2.621-1.955-6.283-3.04-9.517-3.162-3.007.15-5.763 1.798-8.188 4.024C1.004 19.531-.01 21.771.019 24.565c0 1.346.362 2.575.567 3.888.18 1.165.097 2.329.539 3.447.515 2.328 1.63 4.414 3.945 5.285 1.485.504 3.015.864 4.568 1.076 1.286.197 2.597.164 3.871-.098 5.98-1.21 10.363-7.064 10.145-13.137h-.014zM3.072 24.22c.613-3.762 2.755-7.353 6.836-7.916 3.996-.536 8.364 2.17 10.283 5.588 1.26 6.575-3.09 11.81-9.368 13.188-2.533-.437-4.804-1.828-6.348-3.888-1.056-2.17-1.536-4.576-1.394-6.986.07-.46-.037.536-.005-.004l-.004.018zM149.993 25.026c-.102-2.869-.664-5.942-2.811-8-2.026-1.938-4.945-2.995-7.635-3.577-4.397-.931-9.824-.14-11.432 4.722-2.58 3.604-1.46 7.693-1.083 11.693.214 2.264 1.33 3.447 2.788 5.062.637.708 1.027 1.514 1.86 1.942.866.386 1.755.719 2.662.997 8.016 2.668 15.94-4.857 15.651-12.839zm-7.598 9.314c-4.122 2.03-8.927.368-11.562-3.13-2.235-4.936-2.068-12.485 4.03-14.576 5.185-1.779 11.747 2.669 12.635 7.917 0 3.907-1.497 8.005-5.112 9.78l.01.009zM112.989 13.319c-2.061-.424-4.198-.276-6.181.428-1.803.629-3.597 1.006-5.112 2.268-.056-1.006-.279-2.175-1.324-2.585-1.227-.465-2.077.233-2.152 1.356-.102 1.518.181 3.418.186 5.015l.023 5.733.051 11.47c0 1.806.028 3.6-.116 5.401-.116 1.425-.497 3.395-.107 4.755.702-.033 1.278.35 1.994.289.609-.056 1.004-.387 1.603-.391.405-.624.205-1.533.242-2.273.056-1.094.163-2.189.232-3.288.214-2.117.163-4.252-.153-6.356 5.98 5.122 16.144 2.328 18.625-5.044 2.236-6.664-.33-15.2-7.816-16.764l.005-.014zm4.01 17.142c-1.394 2.43-4.62 4.023-7.324 4.312-2.909.312-5.395-1.174-7.384-3.18-.818-1.603-.604-3.647-.66-5.403-.06-1.863-.088-3.725-.06-5.588 1.263-1.788 2.947-3.235 4.902-4.215 3.42-.549 7.598.638 9.685 3.549 1.924 2.687 2.49 7.633.841 10.548v-.023zM87.314 6.147c-.809-1.341-1.664-2.654-2.593-3.916-.502-.685-1.083-1.719-2.036-1.765-.953-.047-1.598.931-2.156 1.5-1.18 1.241-2.356 2.475-3.527 3.701-1.027 1.09.613 2.739 1.645 1.649.805-.85 1.612-1.7 2.42-2.547.354-.368 1.028-1.23 1.511-1.695 1.102 1.136 1.985 3.008 2.733 4.256.748 1.248 2.779.102 2.003-1.183z"/>
    </g>
</svg>
